<svg width="110" height="110" fill="none" xmlns="http://www.w3.org/2000/svg"><path d="M55.543 50.772c13.849 0 27.011-1.298 35.449-3.443-1.041-2.334-3.53-4.096-6.575-4.553-.398-1.287-1.816-2.241-3.51-2.241-.177 0-.348.014-.518.034l.002-.034c0-1.408-1.39-2.549-3.107-2.549-.514 0-.998.104-1.425.286-.62-2.583-3.396-4.531-6.727-4.531-1.711 0-3.274.514-4.475 1.365a4.534 4.534 0 00-2.322-.72c-1.297-.93-2.992-1.493-4.85-1.493a8.652 8.652 0 00-3.415.687c-1.096-.697-2.47-1.113-3.962-1.113-2.782 0-5.153 1.44-6.067 3.46a5.102 5.102 0 00-1.31-.169c-1.459 0-2.745.602-3.516 1.518a7.994 7.994 0 00-3.47-.774c-3.214 0-5.91 1.811-6.655 4.259-2.14.131-3.83 1.594-3.83 3.385 0 .014.003.026.003.04a5.87 5.87 0 00-.65-.04c-2.315 0-4.246 1.348-4.691 3.14 8.43 2.17 21.677 3.486 35.621 3.486z" fill="#E2001A"/><path d="M103.574 69.433l-5.983-19.698a1.564 1.564 0 00-1.494-1.115h-.85a1.55 1.55 0 00-.477.075c-8.492 2.74-23.19 4.379-39.313 4.379-16.124 0-30.82-1.637-39.315-4.38a1.55 1.55 0 00-.477-.075h-.85c-.687 0-1.293.453-1.494 1.115L7.339 69.433A3.682 3.682 0 007 70.96c0 3.507 4.904 6.201 14.991 8.237C30.947 81.005 42.831 82 55.457 82c12.624 0 24.51-.996 33.465-2.802 10.087-2.036 14.991-4.73 14.991-8.237 0-.518-.113-1.032-.339-1.528z" fill="#E2001A"/><path d="M56.063 65.81c-7.373.158-7.12 6.97-6.441 9.105.679 2.138 3.954-.632 5.932-.949 1.98-.316 5.34 2.454 6.95.95 1.61-1.505.934-9.264-6.441-9.105zm-2.056-1.082c1.432-.118 2.437-1.854 2.247-3.88-.191-2.026-1.507-3.571-2.936-3.455-1.43.118-2.434 1.856-2.246 3.88.191 2.026 1.504 3.572 2.935 3.455zm4.835-.146c1.374.387 3.001-.877 3.627-2.822.625-1.946.025-3.84-1.352-4.227-1.377-.388-3.001.876-3.627 2.823-.627 1.944-.022 3.836 1.352 4.226zm7.298-2.574c-1.145-.553-2.8.315-3.69 1.936-.899 1.621-.696 3.384.45 3.936 1.145.551 2.801-.315 3.694-1.938.895-1.62.692-3.382-.454-3.934zm-16.058 5.507c1.136-.567 1.31-2.332.389-3.94-.924-1.608-2.591-2.453-3.727-1.884-1.135.568-1.31 2.332-.384 3.941.922 1.606 2.59 2.451 3.722 1.883z" fill="#fff"/></svg>