<svg width="110" height="110" fill="none" xmlns="http://www.w3.org/2000/svg"><g clip-path="url(#clip0_80_855)" fill="#E2001A"><g clip-path="url(#clip1_80_855)"><path d="M70.05 82.197c.173-8.99-5.02-16.678-6.727-25.281-1.331-6.705-.797-13.825 1.28-20.326-.715 7.14-1.028 14.262.622 21.305 1.875 7.998 6.39 15.852 4.825 24.302zm9.114-62.974c-10.635 21.158 18.218 51.18-1.584 68.93 12.794-21.218-16.872-49.723 1.584-68.93z"/><path d="M85.63 46.08c1.117 14.349 6.683 30.172-2.67 40.053l-.094.147c12.13-9.96 5.77-25.443 2.764-40.2zM72.808 24.93c-10.635 21.16 18.217 51.18-1.585 68.93 12.797-21.216-16.869-49.722 1.585-68.93z"/></g><path d="M23.387 25.073l18.656-6.233a2.147 2.147 0 012.597 1.245l-15.223 6.478a.845.845 0 00-.447 1.077c.168.406.6.585 1.047.518l14.616-5.215c.508-.21 1.052.1 1.262.607a.985.985 0 01-.536 1.292l-14.889 6.28a.845.845 0 00-.446 1.077c.168.406.6.585 1.047.518l15.225-5.467c.508-.21 1.052.1 1.262.607a.985.985 0 01-.536 1.292l-14.787 6.238a.845.845 0 00-.446 1.077c.168.406.6.585 1.047.518l15.053-5.453c.508-.21 1.052.1 1.262.607a.985.985 0 01-.536 1.293l-15.091 6.364a.846.846 0 00-.447 1.077c.168.406.6.584 1.047.518l15.458-5.623c.508-.21 1.052.1 1.262.607a.985.985 0 01-.536 1.292l-14.99 6.323a.845.845 0 00-.446 1.077c.168.405.599.584 1.047.518l15.356-5.58c.508-.211 1.053.1 1.293.535a.985.985 0 01-.536 1.292l-14.99 6.322a.845.845 0 00-.447 1.077c.168.406.6.585 1.047.518l15.428-5.55c.508-.211 1.053.1 1.292.535a.985.985 0 01-.535 1.292l-14.584 6.154a.845.845 0 00-.446 1.077c.168.406.599.585 1.047.518l14.992-5.311c.508-.21 1.052.1 1.22.506a.985.985 0 01-.536 1.292l-14.685 6.196a.845.845 0 00-.447 1.077c.168.406.6.585 1.047.518l15.153-5.497c.478-.138 1.053.1 1.22.506a.985.985 0 01-.535 1.292L43.3 60.253a.845.845 0 00-.447 1.077c.168.406.6.585 1.047.518l15.44-5.378c.421 1.016.017 2.194-.927 2.645l-10.866 5.507c-2.641 1.093-3.85 4.21-2.583 6.839l8.749 18.27c1.224 2.526.075 5.5-2.494 6.622-2.438 1.01-5.31-.182-6.319-2.62l-24.924-60.23c-1.417-3.28.161-7.086 3.411-8.43h.001zm23.71 67.216c.463 1.117 1.828 1.683 2.945 1.22 1.117-.462 1.683-1.826 1.22-2.943-.462-1.118-1.826-1.683-2.944-1.22-1.117.462-1.682 1.826-1.22 2.943z"/></g><defs><clipPath id="clip0_80_855"><path fill="#fff" d="M0 0h110v110H0z"/></clipPath><clipPath id="clip1_80_855"><path fill="#fff" transform="translate(62.596 19.223)" d="M0 0h27.404v74.633H0z"/></clipPath></defs></svg>