<svg width="110" height="110" fill="none" xmlns="http://www.w3.org/2000/svg"><path d="M11.529 60.186a1.11 1.11 0 011.082-1.357h83.778c.713 0 1.24.662 1.082 1.357l-9.112 39.951a1.11 1.11 0 01-1.082.863H21.722a1.11 1.11 0 01-1.082-.863l-9.11-39.951z" fill="#E2001A"/><path d="M55.069 80.31c-6.923.148-6.686 6.544-6.048 8.55.637 2.007 3.712-.595 5.57-.892 1.86-.297 5.014 2.304 6.526.891 1.513-1.413.877-8.698-6.048-8.549zm-1.93-1.016c1.344-.111 2.287-1.742 2.11-3.644-.18-1.902-1.416-3.353-2.758-3.244-1.343.111-2.285 1.743-2.108 3.644.18 1.902 1.412 3.353 2.755 3.244zm4.54-.138c1.29.364 2.817-.823 3.405-2.65.587-1.827.024-3.605-1.27-3.969-1.293-.364-2.817.823-3.404 2.651-.59 1.826-.022 3.602 1.269 3.968zm6.853-2.417c-1.076-.519-2.63.296-3.466 1.818-.844 1.523-.653 3.178.422 3.696 1.076.518 2.631-.295 3.47-1.82.84-1.52.65-3.175-.426-3.694zm-15.08 5.172c1.068-.533 1.232-2.19.366-3.7-.867-1.51-2.433-2.303-3.5-1.769-1.065.533-1.229 2.19-.36 3.7.866 1.509 2.431 2.302 3.495 1.769z" fill="#fff"/><path d="M11.817 46.215a1.11 1.11 0 001.032 1.517H96.15a1.11 1.11 0 001.033-1.517L88.439 24.02a1.11 1.11 0 00-1.032-.703H21.593a1.11 1.11 0 00-1.033.703l-8.743 22.195z" fill="#E2001A"/><rect x="37.853" y="29.976" width="2.22" height="13.317" rx="1.11" fill="#fff"/><rect x="48.951" y="29.975" width="2.22" height="13.317" rx="1.11" fill="#fff"/><rect x="60.048" y="29.975" width="2.22" height="13.317" rx="1.11" fill="#fff"/><rect x="71.146" y="29.975" width="2.22" height="13.317" rx="1.11" fill="#fff"/><path d="M32.45 26.572c-.05.164.073.33.245.33h45.83a.256.256 0 00.245-.33l-4.747-15.537a.256.256 0 00-.245-.181H37.442a.256.256 0 00-.245.181L32.45 26.572z" stroke="#E2001A" stroke-width="1.707"/><rect x="9" y="49.951" width="91" height="6.659" rx="1.707" fill="#E2001A"/></svg>