<svg width="110" height="110" fill="none" xmlns="http://www.w3.org/2000/svg"><g clip-path="url(#clip0_80_861)"><path d="M91.489 72.013l-.113-.303-.304.11-5.272 1.91-.31.111.116.31 1.15 3.076.112.303.304-.11 5.272-1.91.31-.112-.116-.308-1.15-3.077zm-6.716-.09l.115.305.305-.114 5.199-1.942.306-.114-.114-.306-1.15-3.077-.114-.306-.306.115-5.199 1.942-.305.114.114.306 1.15 3.076zm8.698 5.394l-.114-.302-.303.11-5.272 1.909-.31.112.115.309 1.15 3.077.113.302.304-.11 5.271-1.909.31-.112-.115-.309-1.15-3.077zm-4.955-12.49l.306-.114-.114-.305L73.249 23.03c-.312-.835-.937-1.412-1.66-1.742-.722-.329-1.567-.423-2.403-.11a3.13 3.13 0 00-1.853 4.063l15.458 41.376.115.306.306-.115 5.304-1.981zm1.318 19.546l-.306.114.114.306.157.419c.546 1.634 2.346 2.44 3.992 1.825 1.554-.58 2.358-2.371 1.824-3.98h0l-.004-.01-.159-.425-.114-.306-.306.114-5.198 1.943z" fill="#E2001A" stroke="#E2001A" stroke-width=".653"/><path d="M67.933 32.038c-2.42.905-2.936 19.618-7.71 33.124-3.49 9.876-9.26 20.308-17.293 11.236-17.795-20.097-20.607-16.35-24.213-4.088-2.704 9.198-4.948 20.344-4.948 20.344" stroke="#E2001A" stroke-width="1.815"/><path d="M16.4 94.759a3.163 3.163 0 11-5.757-2.625 3.163 3.163 0 015.756 2.625z" fill="#E2001A"/></g><defs><clipPath id="clip0_80_861"><path fill="#fff" d="M0 0h110v110H0z"/></clipPath></defs></svg>