<svg width="110" height="110" fill="none" xmlns="http://www.w3.org/2000/svg"><g clip-path="url(#clip0_81_1012)"><rect y="37.148" width="110" height="16.296" rx="5.615" fill="#E2001A"/><rect y="57.518" width="110" height="16.296" rx="5.615" fill="#E2001A"/><rect x="28.519" y="29" width="52.963" height="52.963" rx="11.231" fill="#E2001A"/><path d="M54.472 56.529c-9.831.21-9.494 9.292-8.589 12.14.906 2.851 5.273-.843 7.91-1.265 2.641-.422 7.12 3.273 9.269 1.266 2.147-2.007 1.244-12.353-8.59-12.141zm-2.742-1.443c1.91-.158 3.25-2.473 2.997-5.175-.255-2.7-2.01-4.762-3.915-4.606-1.908.157-3.245 2.475-2.995 5.174.255 2.7 2.005 4.762 3.913 4.607zm6.448-.196c1.833.517 4.002-1.17 4.836-3.763.834-2.594.035-5.12-1.802-5.637-1.837-.516-4.002 1.17-4.836 3.765-.836 2.592-.03 5.116 1.802 5.635zm9.732-3.432c-1.527-.737-3.733.42-4.922 2.582-1.197 2.162-.927 4.512.6 5.249 1.529.734 3.737-.42 4.927-2.584 1.193-2.16.923-4.51-.605-5.247zm-21.413 7.344c1.515-.757 1.748-3.11.519-5.255-1.232-2.144-3.456-3.27-4.97-2.511-1.513.757-1.746 3.109-.512 5.255 1.23 2.142 3.453 3.268 4.963 2.511z" fill="#F6F6F6"/><circle cx="14.259" cy="43.259" r="2.037" fill="#F6F6F6"/><circle cx="91.667" cy="43.259" r="2.037" fill="#F6F6F6"/><circle cx="91.667" cy="63.63" r="2.037" fill="#F6F6F6"/><circle cx="14.259" cy="63.63" r="2.037" fill="#F6F6F6"/></g><defs><clipPath id="clip0_81_1012"><path fill="#fff" d="M0 0h110v110H0z"/></clipPath></defs></svg>