<svg width="110" height="110" fill="none" xmlns="http://www.w3.org/2000/svg"><path d="M35.738 94.504c12.558 0 22.738-10.18 22.738-22.738s-10.18-22.738-22.738-22.738S13 59.208 13 71.766s10.18 22.738 22.738 22.738z" fill="#E2001A"/><path d="M13.576 65.965s19.965 4.891 25.8-16.937" stroke="#F6F6F6" stroke-width="1.802" stroke-miterlimit="10"/><path d="M32.356 94.683s3.627-20.686 26.121-17.403" stroke="#F6F6F6" stroke-width="1.82" stroke-miterlimit="10"/><path d="M45.089 24.629S44.8 15 54.273 15a10.382 10.382 0 019.85 6.655 7.554 7.554 0 01-.844 7.764 5.203 5.203 0 01-1.841 1.509l21.074 25.145-10.637 9.472-21.94-24.956" fill="#E2001A"/><path d="M88.235 72.611s.266 9.617-9.217 9.594a10.348 10.348 0 01-9.827-6.655 7.531 7.531 0 01.865-7.764 5.301 5.301 0 011.841-1.497L50.912 41.055l10.659-9.45 21.85 25.012" fill="#E2001A"/><path d="M86.87 72.633s9.495 1.587 10.782-7.764a10.382 10.382 0 00-5.258-10.659 7.565 7.565 0 00-7.83-.222 5.17 5.17 0 00-1.686 1.587L60.76 31.284l-10.826 9.283 21.751 25.1" fill="#E2001A"/><path d="M46.797 24.628s-9.428-1.92-11.036 7.42a10.371 10.371 0 004.88 10.837 7.53 7.53 0 007.765.488 5.346 5.346 0 001.796-1.553l21.252 24.956 11.092-8.873-20.82-25.833" fill="#E2001A"/></svg>