<svg width="110" height="110" fill="none" xmlns="http://www.w3.org/2000/svg"><path fill-rule="evenodd" clip-rule="evenodd" d="M15.38 93.856c-.412-1.723-.107-4.046-.134-5.87-.063-4.655-.126-9.31-.18-13.973-.044-3.73-.098-7.458-.143-11.197-.018-1.642.493-1.016 1.3-2.223a2.48 2.48 0 00.053-2.658c-.268-.445-.663-.563-.959-.916-.116-.136-.394-.11-.475-.236-.305-.472-.027-2.078-.036-2.632-.017-1.479-.448-1.733.753-1.869 1.013-.118 2.179.082 3.2.118 2.609.091 5.226.127 7.843.11 2.788-.019 5.961.162 8.65-.709 2.214-.716 4.356-2.232 6.069-3.82.52.953 1.577 2.214 1.783 3.267 0 0 .126.263-.242.97-.278.536-.457 1.099-.708 1.625-.977 2.06-5.755 2.885-7.916 3.483.242 1.008.413 2.814 1.238 3.14.52.2 1.605-.6 2.16-.591.807.01 1.506.056 2.304.093.86.036.726.09 1.309.498.376.255 1.72.808 1.846 1.008.251.38.027 1.805.027 2.25l.054 4.437.296 22.474c.009.681.322 2.468-.144 2.831-.358.273-1.927.028-2.357.037l-4.724.063c-6.956.1-13.911.2-20.867.29z" fill="#E2001A"/><path d="M43.212 95.295c-.373.01-.792-.028-1.277-.065-.205-.019-.373-.038-.475-.038l-26.617.363a1.108 1.108 0 01-1.1-.856c-.336-1.377-.28-2.96-.215-4.485.028-.624.047-1.22.047-1.778L13.23 62.63c-.018-1.368.326-1.87 1.007-2.373.177-.13.335-.242.54-.55a1.397 1.397 0 00.028-1.516c-.046-.075-.13-.14-.289-.252v0c-.283-.217-.62-.366-.903-.583a1.253 1.253 0 01-.299-.328c-.391-.615-.345-1.499-.242-2.69.018-.242.037-.456.037-.596a7.67 7.67 0 00-.065-.81c-.112-1.042.037-2.028 1.836-2.233.82-.093 1.65-.018 2.45.047.355.028.7.056 1.035.074 2.582.093 5.303.121 8.1.112h1.425c2.489.01 5.052.028 7.232-.68 1.864-.595 3.952-1.907 5.89-3.675a1.13 1.13 0 01.942-.28 1.1 1.1 0 01.792.559c.158.288.373.605.587.94.56.837 1.193 1.796 1.38 2.745l.065.307c.025.117-.008.376-.058.647a7.817 7.817 0 01-.51 1.694v0c-.113.27-.215.53-.346.782-1.062 2.221-4.937 3.422-7.557 4.162-.12.034-.194.185-.18.308v0c.02.16.194.233.355.215.19-.022.423-.04.579-.056.28-.028.531-.037.745-.037h.793c.587-.01 1.193-.01 1.77.019.877.037 1.166.13 1.687.52l.252.178c.14.093.438.232.736.372.876.419 1.24.614 1.482.958.382.568.354 1.34.261 2.457-.019.196-.037.363-.037.466l.42 27.583c0 .15.018.345.036.577.112 1.266.224 2.578-.633 3.239-.345.26-.792.353-1.361.363z" stroke="#E2001A" stroke-width="1.699" stroke-miterlimit="10"/><path d="M95.891 89.641c-1.015-12.323.164-26.749-.6-40.623-.764-13.874-2.543-30.764-2.543-30.764l-.622-.305.622-.39-.033-1.941c-.022-1.865-1.975-1.532-1.975-1.532L52.955 14c-3.47.028-2.924 1.19-2.924 1.19l.12 2.711.807.229s-.797.476-.797.39c.677 5.11.6 14.959.339 23.8-.262 8.84.37 43.724.142 47.217-.23 3.492.49 4.415 1.211 5.49.382.571.928.724 1.353.752-.13-.076-.185-.21-.109-.371.35-.78.906-15.282.404-29.547-.502-14.264-.873-20.154-.873-20.154-.306-11.39-1.419-32.659-.666-24.104.262 2.94 1.168 9.373 2.358 29.908 1.19 20.535.862 40.31.884 42.488.01.914-.426 1.447-.906 1.694 4.093-.18 37.762-1.684 39.77-1.78 2.14-.085 2.041-.551 1.823-4.272z" fill="#E2001A"/><path d="M74.65 42.125c7.46 0 13.508-3.76 13.508-8.399 0-4.639-6.048-8.399-13.509-8.399-7.46 0-13.508 3.76-13.508 8.399 0 4.639 6.048 8.399 13.508 8.399zM29.991 79.131c6.256 0 11.327-3.17 11.327-7.08s-5.071-7.079-11.327-7.079-11.327 3.17-11.327 7.08 5.071 7.08 11.327 7.08z" fill="#fff"/></svg>