<svg width="110" height="110" fill="none" xmlns="http://www.w3.org/2000/svg"><path d="M96.234 37.051l-1.553-.282 1.553.282zM35.22 65.386l.283 1.554-.283-1.554zm10.896-43.092c7.474 0 20.594.058 31.46 2.097 5.453 1.023 10.155 2.513 13.28 4.618 1.546 1.04 2.636 2.186 3.273 3.431.624 1.222.86 2.634.552 4.329l3.108.565c.425-2.334.111-4.455-.848-6.331-.946-1.852-2.471-3.369-4.321-4.614-3.668-2.47-8.884-4.057-14.462-5.103-11.198-2.1-24.604-2.151-32.042-2.15v3.158zM94.68 36.769c-.451 2.483-1.41 4.814-3.288 7.07-1.892 2.276-4.771 4.54-9.152 6.79-8.795 4.52-23.36 8.848-47.303 13.204l.565 3.107c23.998-4.365 38.95-8.757 48.182-13.5 4.632-2.381 7.895-4.885 10.137-7.581 2.259-2.715 3.428-5.56 3.967-8.525l-3.108-.565zM34.937 63.833c-6.627 1.205-11.926 2.6-15.987 4.127-4.03 1.516-6.981 3.214-8.771 5.108-1.861 1.97-2.542 4.268-1.661 6.613.81 2.157 2.83 4.023 5.497 5.626 5.386 3.237 14.4 5.989 25.98 7.806 11.622 1.824 25.972 2.728 42.129 2.18l-.107-3.157c-15.985.542-30.133-.355-41.533-2.144-11.445-1.796-19.98-4.47-24.842-7.392-2.457-1.477-3.733-2.874-4.167-4.03-.363-.965-.233-2.028 1-3.332 1.303-1.38 3.728-2.87 7.587-4.321 3.826-1.44 8.927-2.792 15.44-3.977l-.565-3.107z" fill="#E2001A"/><rect x="79.891" y="89.352" width="2.179" height="8.716" rx="1.09" fill="#E2001A"/><rect x="82.07" y="89.352" width="2.179" height="8.716" rx="1.09" fill="#E2001A"/><path d="M83.806 94.485l-.876-1.314-2.174 1.45 2.294 1.25.756-1.386zm23.97-5.136l-1.498.499 1.498-.5zm-23.094 6.45c3.224-2.149 8.465-5.211 13.142-6.818 2.361-.811 4.4-1.187 5.902-1.018.729.082 1.262.285 1.646.564.369.27.69.672.906 1.32l2.997-.998c-.405-1.215-1.095-2.185-2.044-2.876-.934-.68-2.028-1.023-3.152-1.15-2.203-.247-4.776.31-7.28 1.17-5.053 1.736-10.555 4.968-13.869 7.178l1.752 2.628zm21.596-5.951c.326.98.1 1.94-.798 2.905-.944 1.014-2.584 1.95-4.788 2.543-4.387 1.181-10.505.87-16.13-2.198l-1.512 2.773c6.36 3.47 13.317 3.86 18.464 2.475 2.562-.69 4.804-1.857 6.278-3.44 1.519-1.633 2.246-3.766 1.483-6.057l-2.997.999z" fill="#E2001A"/><rect x="1" y="16.36" width="58.836" height="8.716" rx="3.159" fill="#E2001A"/><rect x="1" y="27.254" width="58.836" height="8.716" rx="3.159" fill="#E2001A"/><rect x="16.254" y="12" width="28.328" height="28.328" rx="6.318" fill="#E2001A"/><path d="M30.137 26.724c-5.26.112-5.079 4.97-4.595 6.494.485 1.524 2.82-.452 4.232-.677 1.412-.226 3.808 1.75 4.957.677 1.148-1.074.665-6.608-4.595-6.494zm-1.467-.772c1.021-.084 1.738-1.323 1.603-2.768-.136-1.445-1.075-2.547-2.094-2.464-1.02.085-1.736 1.324-1.602 2.768.136 1.445 1.072 2.547 2.093 2.464zm3.449-.105c.98.276 2.14-.625 2.586-2.013.446-1.387.019-2.738-.964-3.014-.982-.277-2.14.625-2.586 2.013-.448 1.387-.017 2.737.964 3.014zm5.205-1.836c-.817-.394-1.997.225-2.633 1.381-.64 1.157-.495 2.414.322 2.808.817.393 1.998-.225 2.635-1.382.638-1.156.493-2.413-.324-2.807zM25.871 27.94c.81-.405.935-1.664.277-2.811-.659-1.147-1.848-1.75-2.658-1.343-.81.405-.934 1.663-.274 2.81.657 1.146 1.847 1.749 2.655 1.344z" fill="#F6F6F6"/><circle cx="8.627" cy="19.627" r="1.09" fill="#F6F6F6"/><circle cx="50.03" cy="19.627" r="1.09" fill="#F6F6F6"/><circle cx="50.03" cy="30.521" r="1.09" fill="#F6F6F6"/><circle cx="8.627" cy="30.521" r="1.09" fill="#F6F6F6"/></svg>