<svg width="110" height="110" fill="none" xmlns="http://www.w3.org/2000/svg"><rect x="24" y="86.682" width="59.636" height="9.318" rx="2.236" fill="#E2001A"/><rect x="24" y="14" width="61.5" height="9.318" rx="2.236" fill="#E2001A"/><path d="M35.181 16.236A2.236 2.236 0 0137.419 14h30.936a2.236 2.236 0 012.237 2.236v70.446H35.18V16.236z" fill="#E2001A"/><path fill="#fff" d="M35.181 38.227H70.59v3.727H35.181zm0-14.909H70.59v3.727H35.181zm0 29.819H70.59v3.727H35.181zm0 14.908H70.59v3.727H35.181zm0 14.91H70.59v3.727H35.181z"/><path fill="#E2001A" d="M78.045 21.455h1.864v24.227h-1.864z"/><path d="M83.637 48.477a4.66 4.66 0 11-9.319 0 4.66 4.66 0 019.319 0z" fill="#E2001A"/></svg>