<svg width="110" height="110" fill="none" xmlns="http://www.w3.org/2000/svg"><path fill-rule="evenodd" clip-rule="evenodd" d="M91.177 50.632c4.853.436 8.685 1.048 11.41 1.66 2.725.61 5.194 1.484 5.79 3.581 0 1.048-.596 1.747-1.617 2.271l-5.961 28.217c-.256 1.223-.341 2.62.085 3.844.085.174.085.436.085.698 0 .962 0 3.67-14.305 6.64-5.45 1.135-16.86 3.057-31.933 3.057-15.072 0-26.482-1.922-31.932-3.057-14.306-2.97-14.306-5.766-14.306-6.64v-.524c.256-1.485.426-2.882.086-4.368L2.618 58.057C1.68 57.533 1 56.747 1 55.786c0-2.01 2.47-2.883 5.194-3.495 2.725-.611 6.557-1.135 11.41-1.66a981.67 981.67 0 016.387-.524c.213 0 .447-.021.681-.043.235-.022.469-.044.682-.044h.425c.213 0 .405-.022.596-.044.192-.021.384-.043.597-.043h.596c.34-.088.68-.088 1.021-.088.341-.087.597-.087.852-.087.34-.087.596-.087.937-.087.255-.088.596-.088.936-.088h.426c1.022-.087 2.044-.175 3.066-.175h.425c.511-.087 1.022-.087 1.618-.087h.682c.51-.087 1.106-.087 1.617-.087h.596c.596-.088 1.278-.088 1.874-.088h.34c.852-.087 1.618-.087 2.385-.087h20.095c.852.087 1.619.087 2.385.087h.34c.597.088 1.278.088 1.874.088h.596c.51.087 1.107.087 1.618.087h.681c.511.087 1.107.087 1.618.087h.426c.51.044 1.022.066 1.532.088.511.022 1.022.044 1.533.087h.426c.34.088.596.088.937.088.34.087.596.087.936.087.341.087.596.087.852.087.34.088.681.088 1.022.088h.596c.213 0 .404.022.596.043.191.022.383.044.596.044h.426c.213 0 .447.022.681.044.234.022.468.043.681.043 2.214.175 4.428.35 6.387.525zm-2.044 7.425c8.77-.786 12.773-1.66 14.561-2.271l-.341-.175c-1.788-.612-5.79-1.485-14.56-2.271-.724-.044-1.448-.11-2.172-.175a72.38 72.38 0 00-2.171-.175c-.256 0-.511-.022-.767-.044-.255-.021-.51-.043-.766-.043h-.17c-.204 0-.426-.02-.659-.04a8.874 8.874 0 00-.79-.047h-.17c-.255 0-.51-.022-.766-.044-.255-.022-.51-.044-.766-.044h-.681a56.13 56.13 0 00-1.959-.087c-.66-.022-1.32-.044-1.958-.088-.298 0-.618-.021-.937-.043-.32-.022-.639-.044-.937-.044h-.596c-.33 0-.681-.02-1.042-.042a19.988 19.988 0 00-1.172-.045h-.085c-.426 0-.83-.022-1.235-.044a22.356 22.356 0 00-1.234-.044h-.511c-.511-.087-1.107-.087-1.703-.087h-.852c-.766-.087-1.533-.087-2.384-.087H45.62c-.766.087-1.618.087-2.384.087h-.852c-.596.087-1.107.087-1.703.087h-.51c-.427 0-.831.022-1.236.044-.404.022-.809.044-1.234.044h-.085c-.331 0-.682.02-1.042.041-.383.023-.778.046-1.172.046h-.596c-.352 0-.682.023-1 .046-.298.021-.586.041-.874.041-.67.043-1.319.065-1.958.087-.66.022-1.31.044-1.959.088h-.681c-.256 0-.51.022-.766.044s-.511.044-.767.044h-.17c-.203 0-.426.02-.659.04a8.879 8.879 0 01-.789.047h-.17c-.255 0-.51.022-.766.044-.256.021-.511.043-.767.043-.834.048-1.643.121-2.427.192-.656.06-1.294.118-1.916.158-8.77.786-12.772 1.66-14.56 2.27v.176c1.873.611 5.875 1.485 14.56 2.271.622.04 1.26.098 1.916.157.784.071 1.593.145 2.427.192 2.47.175 4.258 2.272 4.258 4.718v.087c0 14.85 11.836 26.994 26.397 26.994 14.561 0 26.398-12.143 26.398-26.994v-.087c0-2.446 1.873-4.543 4.257-4.718.834-.047 1.643-.12 2.427-.192.656-.06 1.295-.117 1.916-.157zM54.136 87.584c-12.177 0-22.31-9.435-23.673-21.578 2.64-1.31 12.347-4.018 24.354-3.756 14.135.35 20.351 2.97 23.332 4.543-2.555 12.142-12.773 20.79-24.014 20.79z" fill="#E2001A"/><path d="M23.55 35.1c-7.295.81-9.307 13.243-9.665 18.254 34.361-5.436 65.5-3.288 83.755 0 0-5.37-1.289-16.321-6.443-17.18-5.154-.86-9.664-.358-11.812-3.222-7.73-10.308-5.368-12.885-12.885-12.885-30.066 0-24.697-1.074-28.992 5.368-4.295 6.443-4.295 8.591-13.959 9.664z" fill="#E2001A"/><path d="M55.929 35.63c-8.255.177-7.972 7.802-7.212 10.194.76 2.393 4.427-.708 6.642-1.063 2.217-.354 5.978 2.748 7.781 1.063 1.803-1.685 1.045-10.371-7.211-10.193zm-2.302-1.211c1.603-.132 2.728-2.076 2.516-4.344-.214-2.268-1.687-3.999-3.287-3.868-1.602.132-2.725 2.078-2.515 4.344.214 2.268 1.684 3.998 3.286 3.868zm5.413-.165c1.539.434 3.36-.98 4.06-3.159.7-2.178.03-4.298-1.513-4.732-1.542-.434-3.36.981-4.06 3.16-.702 2.177-.025 4.296 1.513 4.731zm8.171-2.881c-1.282-.619-3.135.353-4.133 2.168-1.005 1.815-.778 3.788.505 4.407 1.282.617 3.137-.353 4.136-2.17 1.002-1.813.775-3.786-.508-4.405zm-17.978 6.166c1.272-.635 1.467-2.612.435-4.412-1.034-1.8-2.9-2.746-4.172-2.108-1.27.635-1.466 2.61-.43 4.412 1.032 1.798 2.899 2.744 4.167 2.108z" fill="#fff"/></svg>