<svg width="110" height="110" fill="none" xmlns="http://www.w3.org/2000/svg"><g clip-path="url(#clip0_80_860)"><rect x="67.88" y="26.03" width="39.468" height="12.658" rx="2.689" transform="rotate(-41.221 67.88 26.03)" fill="#E2001A"/><rect x="39.262" y="36.923" width="39.468" height="34.086" rx="2.689" transform="rotate(-41.221 39.262 36.923)" fill="#E2001A"/><path d="M64.428 30.379a1.345 1.345 0 111.774 2.024L54.732 42.45a1.346 1.346 0 01-1.773-2.024l11.47-10.048zm5.912 6.747a1.346 1.346 0 011.773 2.024l-11.47 10.048a1.345 1.345 0 11-1.773-2.024l11.47-10.048z" fill="#fff"/><path d="M45.54 64.657c17.284 0 33.841-.712 44.733-3.245.53-.123.81-.703.526-1.167-1.54-2.51-4.47-4.358-7.975-4.879-.512-1.64-2.338-2.855-4.518-2.855-.228 0-.449.018-.668.044l.002-.044c0-1.793-1.79-3.247-3.999-3.247-.662 0-1.285.133-1.834.365-.8-3.292-4.372-5.773-8.66-5.773-2.204 0-4.215.654-5.762 1.739-.826-.54-1.86-.874-2.989-.917-1.67-1.184-3.852-1.903-6.243-1.903a11.24 11.24 0 00-4.397.876c-1.41-.889-3.18-1.419-5.1-1.419-3.582 0-6.635 1.836-7.811 4.41a6.63 6.63 0 00-1.686-.216c-1.88 0-3.535.766-4.527 1.934a10.38 10.38 0 00-4.468-.987c-4.137 0-7.609 2.308-8.567 5.426-2.755.168-4.93 2.032-4.93 4.313 0 .017.003.033.003.05a7.675 7.675 0 00-.836-.05c-2.613 0-4.846 1.32-5.743 3.184-.209.434.078.913.546 1.025 10.875 2.595 27.411 3.336 44.904 3.336z" fill="#E2001A"/><path d="M-1.564 65.142a.891.891 0 01.991-1.143c5.014.802 22.829 3.349 47.01 3.349 24.182 0 41.998-2.547 47.011-3.35a.891.891 0 01.991 1.144L84.235 97.453a.797.797 0 01-.505.528c-1.966.655-11.85 3.452-37.292 3.452-25.443 0-35.327-2.797-37.292-3.452a.798.798 0 01-.506-.528L-1.564 65.142z" fill="#E2001A"/><path d="M45.294 82.863c-7.107.152-6.863 6.718-6.209 8.777.654 2.06 3.811-.61 5.718-.915 1.91-.305 5.147 2.366 6.7.915 1.553-1.45.9-8.93-6.209-8.777zm-1.982-1.043c1.38-.114 2.35-1.788 2.166-3.74-.184-1.953-1.452-3.443-2.83-3.33-1.38.113-2.346 1.789-2.165 3.74.184 1.952 1.45 3.442 2.829 3.33zm4.66-.142c1.325.374 2.894-.844 3.497-2.72.603-1.875.025-3.7-1.303-4.074-1.328-.374-2.893.845-3.496 2.721-.604 1.874-.022 3.698 1.303 4.073zm7.036-2.48c-1.104-.533-2.699.303-3.558 1.866-.866 1.563-.67 3.262.434 3.794 1.104.531 2.7-.303 3.562-1.868.862-1.561.666-3.26-.438-3.792zm-15.48 5.309c1.096-.548 1.264-2.25.376-3.799-.89-1.55-2.498-2.364-3.593-1.815-1.093.547-1.262 2.247-.37 3.798.889 1.549 2.496 2.363 3.588 1.816z" fill="#fff"/></g><defs><clipPath id="clip0_80_860"><path fill="#fff" d="M0 0h110v110H0z"/></clipPath></defs></svg>